PathFileType	4	(X/Y/Z)	Walk8.trc
DataRate	CameraRate	NumFrames	NumMarkers	Units	OrigDataRate	OrigDataStartFrame	OrigNumFrames
200.000000	200.000000	7	54	mm	200.000000	294	521
Frame#	Times		RBHD		C7		RASI		RACR1		RUA1		RElbow		RFA1		RWRU		RCAR		LACR1		LElbowM		LFA1		LWRR		RTH1		RTH3		RTH2		RLFC		RTB1		RTB3		RTB2		RTB4		RMT1		RMT5		LTH2		RTH4		LWRU		LTH3		LTH4		LElbow		LPSI		RPSI		LTB1		LLFC		T10		RWRR		LTB4		LTB3		LBHD		LTH1		LMT1		RBack		LCAL		CLAV		LTB2		LLMAL		LToe		RLMAL		LMT5		RMMAL		RElbowM		RToe		LUA1		LCAR		RCAL
			X1	Y1	Z1	X2	Y2	Z2	X3	Y3	Z3	X4	Y4	Z4	X5	Y5	Z5	X6	Y6	Z6	X7	Y7	Z7	X8	Y8	Z8	X9	Y9	Z9	X10	Y10	Z10	X11	Y11	Z11	X12	Y12	Z12	X13	Y13	Z13	X14	Y14	Z14	X15	Y15	Z15	X16	Y16	Z16	X17	Y17	Z17	X18	Y18	Z18	X19	Y19	Z19	X20	Y20	Z20	X21	Y21	Z21	X22	Y22	Z22	X23	Y23	Z23	X24	Y24	Z24	X25	Y25	Z25	X26	Y26	Z26	X27	Y27	Z27	X28	Y28	Z28	X29	Y29	Z29	X30	Y30	Z30	X31	Y31	Z31	X32	Y32	Z32	X33	Y33	Z33	X34	Y34	Z34	X35	Y35	Z35	X36	Y36	Z36	X37	Y37	Z37	X38	Y38	Z38	X39	Y39	Z39	X40	Y40	Z40	X41	Y41	Z41	X42	Y42	Z42	X43	Y43	Z43	X44	Y44	Z44	X45	Y45	Z45	X46	Y46	Z46	X47	Y47	Z47	X48	Y48	Z48	X49	Y49	Z49	X50	Y50	Z50	X51	Y51	Z51	X52	Y52	Z52	X53	Y53	Z53	X54	Y54	Z54

294	1.47	-59.655	1580.8	363.4	-93.696	1445	296.98	-13.205	948.74	427.76	-21.572	1397.1	436.56	-30.74	1213.3	531.25	-35.721	1083.6	574.16	80.341	983.27	578.89	146.58	873.83	559	214.04	860.04	558.72	-73.592	1434.4	119.13	-222.66	1130.5	105.98	-148.99	985.5	-16.077	-100.19	876.92	16.709	-79.123	742.1	466.64	-102.32	556.86	435.86	-24.734	648.38	419.94	-120.99	452.63	415.59	-112.42	358.18	328.23	-167.82	176.46	318.04	-144.58	264.3	397.73	-137.14	268.67	324.93	-101.31	37.477	271.68	-127.69	32.34	362.04	106.48	708.37	108.31	-89.704	647.55	454.75	-178.12	869.31	-6.3129	88.722	594.12	95.387	43.578	671.13	80.508	-211.56	1129.3	27.143	-184.24	962.03	213.17	-190.09	967.59	317.41	185.15	409	164.82	123.85	488.36	113.75	-194.71	1136.7	273.59	197.55	919.75	521.27	184.49	317.12	170.86	187.39	225.83	175.9	-59.83	1585.6	224.59	-3.8833	756.94	77.791	297.88	78.34	215.56	-161.55	1349	397.04	97.872	49.314	212.5	36.418	1362.1	272.24	146.74	312.54	109.35	130.91	95.842	159.23	333.23	92.843	190.2	-245.27	84.17	358.59	267.77	64.241	139.93	-223.72	99.103	270.23	-55.296	1044.1	485.12	-44.935	26.301	291.36	-155.7	1249.6	32.562	-112.08	822.99	-29.172	-303.44	40.133	318.18
295	1.475	-53.363	1579.9	362.83	-87.274	1444	296.7	-7.1163	947.87	427.61	-15.121	1396.2	436.27	-23.588	1212.7	531.22	-27.664	1083.1	574.48	89.727	984.24	578.85	157.42	875.79	558.57	225.1	862.99	558.12	-67.144	1433.3	118.84	-216.65	1129.8	106.42	-144.67	984.19	-16	-96.696	875.11	16.48	-74.028	741.49	466.58	-98.621	556.41	435.77	-20.35	647.41	419.88	-118.17	452.29	415.51	-110.22	357.65	328.21	-166.9	176.34	318.04	-143.12	264.06	397.73	-135.57	268.33	324.91	-101.22	37.483	271.66	-127.61	32.322	362.06	112.13	706.33	108.35	-85.296	647.04	454.71	-174.82	868.23	-6.181	93.767	592.21	95.384	49.09	669.45	80.402	-205.83	1128.5	27.552	-177.65	960.94	212.55	-183.87	966.55	316.71	192.82	409.33	165.17	129.26	486.64	114.32	-188.37	1135.8	272.99	207.64	922.57	520.9	195.33	317.34	171.06	201.42	226.07	175.93	-53.613	1584.3	224.01	2.1147	755.49	77.519	317.08	81.113	215.81	-155.1	1348.1	396.86	117.6	46.844	212.59	42.876	1361.1	272.01	157.6	311.6	109.62	149.26	94.148	159.32	352.24	96.258	190.5	-245	84.539	358.58	287.19	66.061	140.15	-223.32	99.334	270.21	-47.022	1043.2	485.52	-44.728	26.013	291.24	-149.58	1248.5	32.611	-109.28	821.35	-29.432	-303.36	40.663	318.16
296	1.48	-47.059	1579	362.25	-80.852	1443.1	296.4	-0.96104	946.97	427.44	-8.6621	1395.4	435.95	-16.409	1212.1	531.16	-19.625	1082.6	574.77	99.029	985.17	578.79	168.11	877.7	558.15	235.98	865.85	557.53	-60.689	1432.2	118.54	-210.59	1129	106.83	-140.27	982.87	-15.951	-93.148	873.28	16.246	-68.877	740.86	466.52	-94.878	555.94	435.67	-15.918	646.42	419.81	-115.31	451.96	415.42	-107.98	357.12	328.18	-165.95	176.23	318.02	-141.63	263.84	397.72	-133.96	267.99	324.88	-101.13	37.486	271.64	-127.54	32.308	362.07	117.73	704.14	108.38	-80.838	646.51	454.65	-171.44	867.15	-6.0978	98.693	590.16	95.34	54.527	667.65	80.292	-200.02	1127.6	27.919	-171.02	959.82	211.91	-177.61	965.48	316	200.37	409.59	165.59	134.66	484.87	114.91	-182	1134.9	272.38	217.59	925.29	520.53	205.91	317.57	171.33	215.08	226.4	176.02	-47.384	1583.1	223.42	8.0922	753.95	77.261	335.65	84.008	216.12	-148.64	1347.2	396.67	136.79	44.68	212.71	49.349	1360.1	271.75	168.25	310.73	109.93	167.11	92.728	159.45	370.62	99.77	190.89	-244.71	84.944	358.56	306.01	68.077	140.41	-222.91	99.591	270.17	-38.785	1042.3	485.88	-44.532	25.754	291.13	-143.41	1247.4	32.629	-106.42	819.68	-29.689	-303.27	41.239	318.12
297	1.485	-40.743	1578.1	361.66	-74.43	1442	296.08	5.2594	946.05	427.24	-2.1966	1394.6	435.61	-9.2039	1211.5	531.06	-11.609	1082.1	575.02	108.24	986.07	578.71	178.65	879.55	557.73	246.69	868.64	556.96	-54.229	1431	118.21	-204.47	1128.1	107.19	-135.79	981.52	-15.932	-89.543	871.42	16.004	-63.67	740.22	466.44	-91.088	555.47	435.54	-11.438	645.42	419.73	-112.4	451.63	415.31	-105.7	356.6	328.14	-164.99	176.15	318	-140.12	263.64	397.69	-132.33	267.66	324.84	-101.03	37.485	271.61	-127.47	32.296	362.08	123.29	701.81	108.42	-76.331	645.98	454.56	-167.98	866.06	-6.0661	103.53	587.99	95.255	59.91	665.76	80.175	-194.14	1126.6	28.244	-164.34	958.68	211.25	-171.29	964.38	315.28	207.81	409.79	166.07	140.06	483.07	115.53	-175.6	1133.9	271.77	227.4	927.92	520.14	216.24	317.81	171.67	228.33	226.8	176.19	-41.144	1581.9	222.82	14.06	752.34	77.019	353.55	86.98	216.51	-142.17	1346.2	396.46	155.36	42.793	212.88	55.836	1359	271.46	178.68	309.92	110.3	184.41	91.561	159.64	388.34	103.33	191.36	-244.42	85.387	358.54	324.16	70.247	140.74	-222.48	99.878	270.13	-30.584	1041.4	486.2	-44.346	25.522	291.01	-137.2	1246.3	32.615	-103.49	817.99	-29.947	-303.17	41.864	318.08
298	1.49	-34.415	1577.2	361.05	-68.011	1441	295.74	11.543	945.1	427.02	4.2738	1393.7	435.24	-1.9784	1210.9	530.93	-3.6186	1081.6	575.24	117.36	986.93	578.61	189.03	881.36	557.33	257.22	871.34	556.39	-47.765	1429.8	117.86	-198.31	1127.2	107.5	-131.22	980.16	-15.945	-85.877	869.55	15.754	-58.406	739.55	466.34	-87.249	555	435.39	-6.9097	644.41	419.65	-109.44	451.32	415.19	-103.37	356.09	328.09	-163.99	176.08	317.97	-138.56	263.46	397.66	-130.66	267.35	324.78	-100.93	37.48	271.58	-127.4	32.285	362.08	128.83	699.37	108.46	-71.773	645.43	454.46	-164.44	864.96	-6.0881	108.31	585.73	95.128	65.263	663.78	80.048	-188.19	1125.6	28.523	-157.62	957.52	210.58	-164.92	963.26	314.55	215.16	409.92	166.62	145.5	481.25	116.16	-169.16	1132.8	271.16	237.07	930.44	519.75	226.3	318.05	172.09	241.15	227.25	176.44	-34.893	1580.7	222.2	20.029	750.67	76.789	370.71	89.978	216.97	-135.69	1345.3	396.23	173.26	41.153	213.09	62.336	1358	271.13	188.9	309.17	110.73	201.09	90.616	159.9	405.34	106.9	191.92	-244.11	85.87	358.5	341.58	72.525	141.14	-222.03	100.2	270.08	-22.423	1040.6	486.49	-44.17	25.317	290.89	-130.95	1245.1	32.568	-100.49	816.28	-30.206	-303.08	42.542	318.02
299	1.495	-28.078	1576.3	360.43	-61.592	1440	295.37	17.889	944.12	426.79	10.748	1392.9	434.84	5.2637	1210.4	530.78	4.3422	1081.2	575.42	126.39	987.76	578.5	199.24	883.1	556.93	267.57	873.94	555.84	-41.299	1428.6	117.49	-192.09	1126.3	107.76	-126.57	978.78	-15.993	-82.148	867.66	15.493	-53.087	738.88	466.24	-83.361	554.53	435.23	-2.3308	643.39	419.55	-106.43	451.01	415.06	-101	355.57	328.02	-162.97	176.04	317.94	-136.98	263.3	397.61	-128.95	267.05	324.73	-100.83	37.473	271.55	-127.34	32.276	362.07	134.37	696.84	108.5	-67.164	644.88	454.34	-160.82	863.86	-6.1655	113.07	583.39	94.962	70.61	661.75	79.907	-182.18	1124.6	28.755	-150.85	956.35	209.9	-158.49	962.12	313.81	222.43	409.98	167.23	151.02	479.44	116.81	-162.68	1131.8	270.55	246.59	932.85	519.35	236.1	318.26	172.58	253.51	227.72	176.78	-28.63	1579.5	221.57	26.012	748.94	76.573	387.09	92.947	217.51	-129.2	1344.3	395.98	190.41	39.729	213.36	68.85	1356.9	270.78	198.9	308.47	111.21	217.1	89.863	160.23	421.58	110.41	192.59	-243.8	86.397	358.45	358.23	74.858	141.6	-221.55	100.55	270.03	-14.304	1039.7	486.75	-44.004	25.137	290.78	-124.67	1243.9	32.487	-97.412	814.54	-30.468	-302.97	43.278	317.96
300	1.5	-21.73	1575.3	359.79	-55.175	1438.9	294.97	24.295	943.12	426.54	17.224	1392	434.42	12.517	1209.8	530.59	12.269	1080.7	575.56	135.32	988.55	578.37	209.3	884.79	556.55	277.74	876.45	555.31	-34.832	1427.4	117.09	-185.84	1125.3	107.97	-121.84	977.38	-16.077	-78.351	865.76	15.22	-47.713	738.19	466.12	-79.42	554.06	435.06	2.2997	642.35	419.45	-103.36	450.71	414.93	-98.568	355.07	327.95	-161.93	176.02	317.9	-135.36	263.16	397.55	-127.21	266.76	324.66	-100.73	37.463	271.51	-127.28	32.268	362.07	139.93	694.27	108.55	-62.503	644.33	454.19	-157.11	862.74	-6.2995	117.84	581.02	94.76	75.981	659.68	79.75	-176.11	1123.6	28.938	-144.03	955.17	209.21	-152	960.97	313.07	229.65	409.97	167.9	156.62	477.65	117.47	-156.16	1130.7	269.94	255.96	935.15	518.95	245.64	318.44	173.14	265.41	228.18	177.21	-22.356	1578.3	220.92	32.024	747.19	76.369	402.66	95.83	218.14	-122.7	1343.3	395.7	206.76	38.485	213.69	75.378	1355.9	270.4	208.67	307.8	111.76	232.4	89.267	160.64	437.02	113.81	193.36	-243.46	86.97	358.41	374.07	77.192	142.16	-221.06	100.94	269.97	-6.2301	1038.9	486.97	-43.847	24.981	290.66	-118.36	1242.7	32.372	-94.249	812.79	-30.735	-302.86	44.077	317.89
